<svg width="1024" height="1024" viewBox="0 0 1024 1024" fill="none" xmlns="http://www.w3.org/2000/svg">
  <defs>
    <linearGradient id="bg" x1="140" y1="112" x2="884" y2="912" gradientUnits="userSpaceOnUse">
      <stop stop-color="#0F172A"/>
      <stop offset="0.55" stop-color="#1D4ED8"/>
      <stop offset="1" stop-color="#38BDF8"/>
    </linearGradient>
    <linearGradient id="fold" x1="645" y1="248" x2="790" y2="395" gradientUnits="userSpaceOnUse">
      <stop stop-color="#A5F3FC"/>
      <stop offset="1" stop-color="#22D3EE"/>
    </linearGradient>
    <linearGradient id="eye" x1="368" y1="516" x2="656" y2="516" gradientUnits="userSpaceOnUse">
      <stop stop-color="#1D4ED8"/>
      <stop offset="1" stop-color="#0F172A"/>
    </linearGradient>
    <filter id="shadow" x="168" y="136" width="688" height="752" filterUnits="userSpaceOnUse" color-interpolation-filters="sRGB">
      <feFlood flood-opacity="0" result="BackgroundImageFix"/>
      <feColorMatrix in="SourceAlpha" type="matrix" values="0 0 0 0 0 0 0 0 0 0 0 0 0 0 0 0 0 0 127 0" result="hardAlpha"/>
      <feOffset dy="28"/>
      <feGaussianBlur stdDeviation="28"/>
      <feColorMatrix type="matrix" values="0 0 0 0 0.0588235 0 0 0 0 0.0901961 0 0 0 0 0.164706 0 0 0 0.18 0"/>
      <feBlend mode="normal" in2="BackgroundImageFix" result="effect1_dropShadow_1_1"/>
      <feBlend mode="normal" in="SourceGraphic" in2="effect1_dropShadow_1_1" result="shape"/>
    </filter>
  </defs>

  <rect x="64" y="64" width="896" height="896" rx="224" fill="url(#bg)"/>
  <rect x="98" y="98" width="828" height="828" rx="192" stroke="white" stroke-opacity="0.14" stroke-width="2"/>

  <g filter="url(#shadow)">
    <path d="M278 220C278 195.699 297.699 176 322 176H598L746 324V760C746 784.301 726.301 804 702 804H322C297.699 804 278 784.301 278 760V220Z" fill="white"/>
    <path d="M598 176L746 324H642C617.699 324 598 304.301 598 280V176Z" fill="url(#fold)"/>

    <rect x="370" y="344" width="284" height="28" rx="14" fill="#DBEAFE"/>
    <rect x="370" y="408" width="228" height="28" rx="14" fill="#BFDBFE"/>
    <rect x="370" y="472" width="184" height="28" rx="14" fill="#93C5FD"/>

    <path d="M368 582C404 532.667 451.333 508 510 508C568.667 508 616 532.667 652 582C616 631.333 568.667 656 510 656C451.333 656 404 631.333 368 582Z" fill="url(#eye)"/>
    <circle cx="510" cy="582" r="48" fill="#22D3EE"/>
    <circle cx="510" cy="582" r="22" fill="white"/>

    <rect x="370" y="700" width="208" height="28" rx="14" fill="#DBEAFE"/>
    <rect x="370" y="636" width="262" height="28" rx="14" fill="#BFDBFE"/>
  </g>
</svg>
